# xmcd
#
# Track frame offsets:
#	182
#	15627
#	32095
#	42967
#	57922
#	68410
#	85522
#	100470
#	114220
#	127477
#	143470
#	154372
#	168610
#	187055
#	197587
#
# Disc length: 2826 seconds
# Revision: 0
# Processed by: cddbd v1.5.2PL0 Copyright (c) Steve Scherf et al.
# Submitted via: dBpowerAMP V12.0
#
DISCID=ca0b080f
DTITLE=Dorival Caymmi - Caymmi em Familia
DYEAR=1994
DGENRE=Brazil
TTITLE0=Vamos falar de Tereza (Danilo e Dorival Caymmi)
TTITLE1=Deixa Ficar (Nana Caymmi)
TTITLE2=O Casarão (Dori Caymmi)
TTITLE3=A Vida vai mudar (Danilo Caymmi)
TTITLE4=Tia Anastacia (Dorival Caymmi)
TTITLE5=Um Sonho maior (Danilo Caymmi)
TTITLE6=Esse amor (Danilo Caymmi)
TTITLE7=Eu te amo (Nana Caymmi)
TTITLE8=Afoxe (Dorival Caymmi)
TTITLE9=Na ribeira deste rio (Dori Caymmi)
TTITLE10=Vem morena (Nana Caymmi)
TTITLE11=O bem e o mal (Danilo Caymmi)
TTITLE12=Dois corações (Nana Caymmi)
TTITLE13=Retirantes (Dorival Caymmi)
TTITLE14=Oia (Danilo Caymmi)
EXTD=
EXTT0=
EXTT1=
EXTT2=
EXTT3=
EXTT4=
EXTT5=
EXTT6=
EXTT7=
EXTT8=
EXTT9=
EXTT10=
EXTT11=
EXTT12=
EXTT13=
EXTT14=
PLAYORDER=
